<?xml version="1.0" standalone="no"?>
<!DOCTYPE svg PUBLIC "-//W3C//DTD SVG 20010904//EN"
 "http://www.w3.org/TR/2001/REC-SVG-20010904/DTD/svg10.dtd">
<svg version="1.0" xmlns="http://www.w3.org/2000/svg"
 width="861.000000pt" height="861.000000pt" viewBox="0 0 861.000000 861.000000"
 preserveAspectRatio="xMidYMid meet">
<metadata>
Created by potrace 1.14, written by Peter Selinger 2001-2017
</metadata>
<g transform="translate(0.000000,861.000000) scale(0.100000,-0.100000)"
fill="#000000" stroke="none">
<path d="M6257 7894 c-1 -1 -30 -5 -63 -8 -119 -11 -256 -67 -354 -144 -55
-44 -140 -134 -134 -143 2 -4 -2 -9 -10 -12 -25 -10 -97 -175 -116 -265 -25
-123 -19 -210 23 -377 16 -63 114 -214 179 -275 67 -64 81 -73 180 -129 47
-25 158 -62 169 -56 4 3 10 1 14 -4 3 -5 13 -10 23 -10 9 0 47 -2 83 -4 119
-6 248 24 364 85 60 31 164 111 165 126 0 7 5 10 10 7 6 -3 10 -1 10 4 0 6 14
23 30 38 17 14 30 32 30 40 0 7 5 13 10 13 6 0 10 4 10 10 0 5 13 31 28 57 28
47 67 160 77 218 13 83 5 238 -15 291 -5 13 -7 24 -4 24 4 0 1 6 -5 13 -6 8
-8 17 -4 20 3 4 0 7 -7 7 -7 0 -10 3 -7 7 15 14 -81 168 -151 244 -41 43 -78
79 -83 79 -6 0 -18 8 -29 18 -24 22 -128 74 -175 88 -5 2 -20 5 -33 8 -12 3
-25 7 -30 9 -13 9 -178 27 -185 21z"/>
<path d="M4950 6965 c-84 -41 -213 -122 -218 -137 -2 -4 -8 -8 -14 -8 -9 0
-24 -9 -140 -88 -25 -18 -50 -32 -55 -32 -4 0 -20 -11 -34 -24 -14 -13 -34
-26 -45 -30 -10 -3 -31 -17 -46 -31 -15 -14 -29 -24 -31 -23 -4 3 -199 -120
-239 -151 -14 -12 -31 -21 -37 -21 -6 0 -11 -4 -11 -10 0 -5 -4 -10 -9 -10 -5
0 -33 -16 -62 -35 -30 -20 -62 -41 -73 -48 -10 -7 -24 -17 -30 -23 -6 -6 -14
-11 -18 -12 -15 -4 -237 -148 -248 -161 -3 -3 -10 -7 -16 -8 -16 -3 -147 -92
-156 -106 -4 -7 -8 -9 -8 -4 0 6 -62 -30 -95 -56 -5 -4 -53 -35 -105 -69 -52
-33 -98 -65 -101 -70 -3 -5 -9 -8 -12 -6 -4 1 -16 -5 -27 -14 -11 -10 -23 -18
-26 -18 -12 0 -154 -103 -154 -111 0 -5 -7 -9 -15 -9 -8 0 -15 -3 -15 -7 0 -5
-17 -26 -38 -48 -38 -40 -127 -165 -118 -165 3 0 -6 -20 -20 -45 -13 -25 -22
-45 -18 -45 4 0 2 -6 -3 -12 -12 -15 -32 -95 -41 -158 -14 -107 1 -287 28
-345 16 -35 62 -170 63 -182 0 -7 5 -13 10 -13 6 0 8 -3 4 -6 -3 -3 4 -31 15
-62 11 -32 21 -61 22 -67 3 -10 8 -23 29 -80 6 -16 12 -34 13 -40 3 -15 54
-167 64 -190 5 -11 23 -65 40 -120 17 -55 35 -109 40 -120 8 -18 21 -59 26
-77 1 -5 3 -10 4 -13 1 -3 3 -8 5 -12 1 -5 5 -16 8 -25 10 -27 18 -53 18 -56
-1 -1 6 -19 15 -40 8 -20 17 -44 19 -52 3 -16 33 -106 42 -130 3 -8 7 -19 9
-25 1 -5 14 -44 29 -85 15 -41 27 -81 27 -87 1 -7 5 -13 10 -13 5 0 7 -4 4 -8
-4 -7 15 -69 41 -132 3 -8 7 -18 8 -22 2 -5 4 -11 5 -15 1 -5 2 -12 1 -17 -1
-4 2 -13 7 -20 5 -6 14 -31 21 -56 7 -25 19 -57 27 -71 7 -14 11 -29 7 -33 -3
-3 -1 -6 6 -6 7 0 10 -4 7 -8 -3 -5 18 -73 45 -153 28 -79 52 -148 53 -154 6
-29 40 -121 46 -129 5 -5 6 -15 3 -22 -3 -8 1 -14 8 -14 7 0 10 -3 6 -6 -4 -5
39 -145 70 -224 3 -8 7 -20 8 -26 2 -5 18 -55 37 -110 19 -54 43 -124 52 -154
10 -30 21 -64 26 -75 18 -44 75 -220 72 -227 -1 -5 3 -8 10 -8 6 0 9 -3 6 -6
-3 -3 12 -56 34 -117 21 -62 41 -119 43 -128 8 -36 95 -150 95 -125 0 4 7 0
15 -8 37 -36 184 -46 222 -14 8 7 22 13 30 14 28 4 101 89 112 130 19 70 16
107 -23 279 -2 11 -12 56 -21 100 -9 44 -19 89 -21 100 -2 11 -7 34 -9 50 -3
17 -8 38 -11 48 -3 10 -7 30 -9 45 -2 15 -9 50 -15 77 -7 28 -14 59 -16 70 -2
11 -6 29 -8 40 -3 11 -14 67 -26 125 -12 58 -23 114 -26 125 -2 11 -6 32 -9
47 -3 14 -16 77 -29 140 -14 62 -27 127 -30 143 -3 17 -12 59 -21 95 -8 36
-17 76 -18 90 -2 14 -14 72 -26 130 -13 58 -25 114 -27 125 -3 17 -16 80 -19
95 -1 3 -5 25 -10 50 -10 52 -12 58 -15 65 -3 7 -5 13 -15 70 -5 28 -9 52 -10
55 -8 27 -18 88 -17 98 2 6 -1 12 -5 12 -4 0 -9 13 -10 28 -1 15 -4 39 -7 52
-3 14 -15 70 -26 125 -12 55 -23 109 -26 120 -2 11 -7 34 -9 50 -3 17 -8 37
-10 45 -5 18 -14 63 -21 105 -3 17 -8 37 -11 45 -5 14 -7 23 -17 80 -4 22 -15
75 -31 150 -3 14 -7 36 -10 50 -3 14 -7 36 -10 50 -17 75 -21 108 -18 126 1
10 4 29 5 42 1 12 6 22 10 22 4 0 8 7 8 15 0 17 79 98 100 103 8 2 17 7 20 10
3 4 71 51 152 105 81 54 155 105 163 113 8 9 15 13 15 10 0 -5 191 121 200
133 3 3 21 15 40 25 19 11 44 28 54 38 11 10 25 18 32 18 7 0 14 3 16 8 2 4
91 65 198 137 107 71 201 135 208 142 7 7 18 13 23 13 5 0 22 11 37 25 15 14
32 25 38 25 6 0 17 6 23 14 7 8 44 34 83 57 86 52 160 61 224 27 31 -16 181
-158 167 -158 -2 0 11 -15 29 -33 18 -19 62 -67 98 -107 36 -41 84 -94 108
-118 23 -25 42 -47 42 -49 0 -2 10 -14 23 -27 12 -12 54 -58 92 -101 39 -43
82 -92 98 -107 15 -16 27 -33 27 -39 0 -6 4 -8 9 -5 5 3 11 -4 14 -15 3 -12
10 -18 16 -14 6 3 11 2 11 -3 0 -11 37 -55 180 -211 19 -21 64 -71 100 -112
97 -110 140 -149 164 -150 11 0 29 -2 39 -4 24 -4 77 14 77 27 0 5 4 7 8 4 19
-11 53 48 59 103 4 29 -11 87 -26 101 -7 5 -40 56 -91 138 -18 28 -37 52 -42
52 -5 0 -7 4 -3 10 3 5 -3 18 -15 30 -11 11 -20 22 -20 24 0 12 -64 106 -72
106 -5 0 -7 4 -4 9 3 5 -5 20 -19 35 -13 15 -23 28 -22 31 1 2 -5 12 -13 22
-9 10 -15 21 -15 25 0 3 -10 18 -22 32 -13 14 -21 26 -19 26 6 0 -139 221
-158 243 -9 9 -14 17 -11 17 3 0 1 6 -5 13 -22 27 -160 241 -160 249 0 4 -4 8
-10 8 -5 0 -10 7 -10 15 0 7 -8 19 -17 24 -10 6 -15 11 -10 11 4 0 -20 40 -53
89 -33 49 -60 93 -60 96 0 4 -10 16 -22 26 -11 11 -18 19 -13 19 4 0 -4 15
-19 34 -14 19 -26 39 -26 44 0 6 -4 12 -8 14 -5 2 -25 31 -47 66 -21 34 -42
62 -47 62 -5 0 -6 5 -3 10 3 6 -1 13 -9 16 -9 3 -13 10 -10 15 3 5 0 9 -5 9
-6 0 -11 6 -11 13 0 7 -9 23 -20 35 -11 12 -20 24 -20 28 0 13 -64 104 -73
104 -6 0 -8 3 -4 6 3 4 -4 21 -17 38 -13 17 -26 39 -29 49 -4 9 -10 17 -16 17
-5 0 -12 8 -15 18 -3 9 -12 26 -19 37 -57 91 -92 141 -101 147 -6 4 -7 8 -3 8
19 0 -71 74 -113 93 -67 30 -172 31 -230 2z"/>
<path d="M4591 5084 c-16 -7 -79 -50 -139 -96 -60 -46 -121 -92 -136 -103 -16
-11 -33 -25 -40 -30 -6 -6 -40 -32 -76 -58 -103 -75 -150 -117 -164 -146 -16
-32 -13 -83 7 -111 18 -26 88 -79 104 -80 6 0 13 -3 15 -7 5 -13 78 -65 78
-56 0 4 5 0 11 -10 5 -9 24 -24 41 -33 17 -9 40 -24 51 -35 11 -10 25 -16 30
-12 6 3 7 2 4 -4 -4 -5 6 -16 21 -24 15 -8 29 -16 32 -19 3 -3 20 -17 38 -32
18 -15 33 -31 34 -35 0 -4 5 -19 10 -33 10 -26 12 -70 4 -105 -2 -11 -5 -20
-6 -20 -1 0 -3 -7 -5 -15 -6 -22 -16 -64 -19 -75 -1 -5 -11 -37 -21 -70 -10
-33 -19 -67 -20 -75 -1 -8 -5 -22 -9 -30 -6 -15 -105 -353 -111 -380 -2 -8 -4
-15 -5 -15 -1 0 -4 -11 -14 -60 -1 -5 -4 -14 -7 -20 -25 -42 -26 -127 -2 -164
18 -28 63 -75 63 -66 0 4 7 -1 16 -9 8 -9 30 -17 47 -18 18 0 39 -2 47 -3 22
-2 82 30 106 57 12 12 34 50 50 83 15 33 31 62 36 63 4 2 8 9 8 16 0 7 16 43
35 79 20 37 32 67 28 67 -4 0 -3 4 2 8 9 6 59 99 60 112 1 3 10 23 22 45 11
22 21 44 21 49 0 5 4 12 9 15 4 3 36 62 69 131 34 69 119 240 188 381 125 252
137 287 123 348 -11 41 -39 74 -259 304 -27 27 -48 53 -48 58 0 5 -6 9 -12 9
-7 0 -24 16 -38 34 -14 19 -28 32 -32 29 -5 -2 -8 1 -8 7 0 12 -143 160 -156
161 -5 0 -19 2 -31 3 -12 1 -35 -3 -52 -10z"/>
<path d="M1898 4324 c-2 -1 -23 -5 -48 -8 -112 -14 -160 -23 -215 -38 -22 -6
-44 -11 -49 -9 -4 1 -13 -2 -20 -7 -6 -5 -24 -12 -41 -16 -55 -13 -235 -87
-235 -97 0 -5 -3 -8 -7 -7 -12 2 -61 -22 -121 -59 -29 -18 -55 -33 -58 -33 -5
0 -23 -14 -55 -42 -10 -10 -19 -15 -19 -12 0 7 -98 -72 -122 -100 -10 -10 -18
-16 -18 -13 0 5 -129 -125 -172 -174 -41 -47 -58 -69 -53 -69 3 0 -6 -12 -19
-27 -37 -42 -105 -150 -99 -157 4 -3 1 -6 -5 -6 -7 0 -12 -7 -12 -15 0 -8 -5
-15 -11 -15 -5 0 -8 -4 -5 -9 3 -5 -1 -14 -9 -21 -8 -7 -12 -16 -9 -21 3 -5 0
-9 -5 -9 -6 0 -11 -5 -11 -11 0 -5 -9 -29 -19 -53 -42 -91 -84 -207 -96 -265
-2 -9 -10 -45 -18 -81 -43 -183 -51 -427 -22 -620 2 -14 6 -41 9 -60 3 -19 17
-75 31 -125 14 -49 27 -97 29 -105 25 -97 192 -424 236 -461 11 -9 16 -19 13
-23 -3 -3 2 -8 11 -12 9 -3 16 -11 16 -18 1 -25 193 -222 290 -297 24 -19 53
-42 65 -52 11 -10 34 -26 50 -34 17 -9 32 -19 35 -23 10 -14 129 -78 134 -73
3 4 6 2 6 -4 0 -11 57 -37 73 -34 4 0 7 -4 7 -9 0 -5 3 -9 8 -8 4 1 25 -6 47
-16 61 -27 214 -77 239 -78 11 -1 26 -5 32 -9 6 -5 31 -10 57 -13 26 -3 51 -7
55 -10 17 -10 156 -19 297 -19 155 0 249 9 350 34 22 6 49 11 60 13 11 2 21 5
23 6 1 1 6 3 11 4 5 0 12 4 16 8 4 4 13 4 21 1 8 -3 14 0 14 6 0 6 3 10 8 9
10 -3 75 13 87 21 6 4 33 16 60 26 28 10 58 25 68 33 9 8 17 12 17 8 0 -9 133
63 142 78 4 6 8 8 8 3 0 -11 58 27 101 66 10 9 22 17 25 16 3 -1 21 13 40 29
19 17 34 27 34 24 0 -3 16 11 35 31 19 20 37 37 40 37 11 0 73 68 68 74 -4 3
1 6 10 6 10 0 17 3 17 8 0 4 22 30 48 59 67 74 77 87 74 95 -1 5 2 8 7 8 5 0
19 15 31 34 15 26 19 42 13 63 -4 15 -8 30 -8 33 -1 3 -4 12 -8 20 -5 13 -39
115 -52 158 -3 7 -4 13 -3 15 1 1 -5 13 -12 27 -8 14 -14 30 -15 35 0 6 -16
56 -35 113 -34 101 -35 103 -47 75 -59 -132 -79 -173 -100 -205 -13 -21 -21
-38 -19 -38 3 0 -6 -12 -20 -27 -13 -14 -22 -28 -20 -30 2 -2 -9 -18 -25 -34
-16 -17 -27 -34 -24 -40 4 -5 -1 -9 -9 -9 -9 0 -16 -4 -16 -8 0 -5 -13 -24
-30 -42 -16 -18 -30 -38 -30 -43 0 -6 -3 -8 -6 -4 -3 3 -23 -12 -44 -33 -21
-21 -48 -44 -60 -50 -11 -6 -17 -16 -14 -22 4 -6 3 -8 -3 -5 -5 3 -20 -4 -34
-16 -13 -13 -53 -41 -89 -62 -36 -22 -68 -44 -71 -48 -3 -5 -10 -9 -15 -9 -14
-2 -68 -25 -77 -35 -5 -4 -12 -8 -15 -8 -6 0 -89 -29 -152 -53 -8 -3 -17 -6
-20 -7 -6 -2 -106 -23 -140 -30 -56 -12 -141 -18 -240 -17 -131 1 -173 5 -275
28 -16 4 -37 8 -45 9 -9 0 -20 3 -25 7 -6 3 -23 9 -40 13 -44 12 -45 12 -50
15 -3 1 -8 3 -12 4 -5 1 -24 9 -43 18 -19 10 -42 18 -50 20 -8 2 -17 5 -20 8
-3 3 -35 21 -72 40 -38 19 -68 38 -68 42 0 5 -5 8 -10 8 -27 0 -172 121 -259
215 -25 27 -56 60 -68 72 -12 13 -19 23 -15 23 4 0 2 4 -4 8 -23 16 -150 226
-142 235 2 2 -4 12 -12 21 -8 10 -15 23 -17 30 -8 34 -29 86 -35 86 -4 0 -5 6
-2 14 3 8 0 17 -5 21 -6 3 -9 11 -5 16 3 5 2 15 -4 22 -8 11 -15 43 -38 167
-9 46 -10 347 -1 384 3 16 10 50 14 75 8 50 9 57 13 69 2 4 4 12 5 17 1 6 5
17 8 25 3 8 11 33 18 55 26 89 136 306 169 335 3 3 17 21 30 40 25 37 54 70
107 124 18 19 29 36 26 40 -3 3 1 6 10 6 8 0 24 11 35 25 11 14 25 25 30 25 6
0 15 6 19 14 4 7 46 38 93 69 47 31 90 61 96 66 7 5 15 7 18 4 3 -4 6 -1 6 5
0 7 3 11 8 10 4 -1 28 8 54 20 47 22 98 44 108 47 3 0 28 8 55 18 60 20 180
46 255 54 102 12 365 3 391 -13 4 -2 20 -6 36 -8 15 -3 39 -7 53 -11 14 -4 32
-8 40 -10 19 -3 36 -9 140 -52 47 -19 93 -37 103 -40 9 -3 17 -10 17 -15 0 -5
5 -6 10 -3 6 3 10 2 10 -3 0 -5 8 -12 18 -16 9 -3 32 -15 50 -26 36 -22 36
-22 20 17 -6 15 -12 33 -13 38 -7 29 -39 121 -44 125 -3 3 -6 10 -7 15 -2 28
-17 75 -24 75 -4 0 -7 6 -6 13 1 16 -75 239 -81 234 -2 -3 -26 4 -54 14 -27
10 -49 16 -49 13 0 -4 -6 -2 -12 4 -7 5 -30 13 -50 16 -21 3 -59 11 -84 16
-26 6 -49 9 -51 6 -3 -3 -17 0 -32 6 -22 9 -375 20 -383 12z"/>
<path d="M6408 4325 c-2 -2 -30 -6 -63 -9 -33 -4 -78 -11 -99 -16 -22 -5 -42
-8 -45 -8 -3 0 -8 -1 -11 -2 -3 -1 -14 -3 -24 -5 -11 -2 -30 -6 -43 -10 -13
-3 -24 -5 -25 -5 -6 1 -185 -62 -215 -75 -17 -8 -36 -15 -42 -15 -6 0 -11 -5
-11 -11 0 -5 -4 -8 -9 -4 -5 3 -17 -2 -25 -11 -9 -8 -16 -13 -16 -9 0 6 -54
-23 -153 -84 -69 -42 -83 -52 -118 -83 -10 -10 -19 -16 -19 -13 0 5 -23 -13
-74 -58 -71 -64 -116 -110 -116 -119 0 -5 -4 -6 -10 -3 -5 3 -10 3 -10 -2 0
-4 -15 -24 -33 -44 -74 -84 -147 -182 -147 -199 0 -6 -4 -10 -8 -10 -5 0 -22
-24 -37 -52 -16 -29 -32 -56 -37 -59 -5 -3 -10 -16 -11 -27 -1 -12 -4 -22 -8
-22 -21 0 -133 -308 -153 -425 -6 -32 -12 -63 -22 -110 -11 -52 -13 -397 -2
-465 5 -36 11 -76 13 -90 5 -28 13 -65 15 -65 1 0 3 -14 5 -31 3 -17 10 -44
16 -60 6 -16 13 -38 15 -49 1 -11 8 -33 14 -50 6 -16 12 -32 12 -35 0 -3 5
-14 11 -25 6 -11 12 -25 13 -30 4 -23 77 -170 88 -177 6 -4 7 -8 3 -8 -5 0 0
-12 10 -27 10 -16 25 -40 33 -55 7 -16 17 -28 22 -28 4 0 8 -5 8 -11 0 -10 41
-69 68 -97 6 -7 12 -18 12 -23 0 -5 60 -69 133 -142 118 -119 252 -226 350
-280 81 -45 92 -51 100 -49 4 1 7 -1 7 -6 0 -4 15 -13 33 -21 17 -7 50 -21 72
-31 49 -21 211 -77 245 -84 30 -6 65 -13 105 -22 33 -8 53 -11 135 -21 68 -8
329 -8 390 0 25 4 63 9 85 12 57 8 194 41 230 56 17 7 35 13 40 14 6 1 13 3
18 5 4 1 10 3 15 4 26 4 192 79 192 87 0 5 3 8 8 7 23 -7 255 142 341 218 65
57 178 169 162 159 -9 -5 -12 -4 -7 3 4 7 13 12 19 12 11 0 136 159 146 185 2
5 7 12 11 15 4 3 26 39 49 80 23 41 46 82 52 90 5 8 12 22 15 30 3 8 12 27 20
43 8 15 13 27 9 27 -3 0 1 10 9 23 11 17 34 76 41 107 11 43 19 67 27 76 5 7
8 16 7 20 -1 5 0 12 1 17 5 15 26 113 35 162 31 174 22 531 -15 631 -5 12 -6
25 -3 28 3 3 0 12 -7 21 -7 8 -9 15 -5 15 4 0 1 8 -6 17 -8 9 -9 14 -3 10 6
-3 -7 44 -28 106 -51 150 -145 341 -198 404 -5 7 -10 16 -10 20 0 5 -11 20
-25 35 -14 15 -25 31 -25 35 0 5 -25 37 -56 73 -77 90 -159 168 -281 270 -7 5
-17 10 -23 10 -5 0 -10 4 -10 8 0 10 -141 101 -152 99 -4 -1 -13 7 -21 17 -8
10 -19 16 -25 12 -5 -3 -12 -2 -14 3 -5 13 -125 71 -132 64 -3 -4 -6 -1 -6 5
0 7 -8 12 -18 12 -10 0 -22 4 -28 9 -11 11 -195 68 -244 76 -19 3 -44 9 -55
12 -11 3 -33 8 -50 9 -16 2 -46 6 -65 9 -35 6 -357 14 -362 10z m320 -410 c30
-3 64 -10 77 -15 13 -5 25 -7 28 -4 9 9 245 -75 322 -115 105 -54 149 -81 153
-92 2 -5 8 -9 13 -9 5 0 20 -10 35 -22 14 -13 28 -22 30 -20 9 5 220 -215 249
-260 6 -8 26 -40 45 -69 78 -118 143 -268 176 -406 36 -155 48 -327 30 -458
-4 -27 -9 -65 -11 -83 -16 -112 -85 -310 -145 -417 -16 -27 -29 -54 -28 -59 0
-5 -4 -12 -9 -15 -5 -3 -30 -36 -56 -73 -82 -116 -224 -251 -352 -334 -33 -21
-63 -43 -66 -47 -3 -5 -10 -9 -15 -9 -5 0 -25 -9 -46 -19 -38 -20 -183 -78
-208 -85 -150 -37 -172 -42 -260 -51 -134 -14 -282 -6 -415 23 -38 9 -77 17
-85 19 -43 7 -230 86 -295 123 -67 39 -156 101 -167 117 -4 5 -8 6 -8 2 0 -4
-39 31 -87 78 -48 47 -92 85 -97 85 -5 0 -7 3 -3 6 3 3 -3 16 -14 28 -87 92
-249 398 -249 469 0 9 -4 17 -8 17 -4 0 -8 8 -8 18 -1 9 -4 31 -8 47 -37 164
-41 391 -10 560 18 102 81 274 133 369 57 104 131 212 159 229 6 4 12 12 12
16 0 9 148 159 153 155 2 -2 17 10 35 26 17 16 59 45 92 66 33 20 60 41 60 47
0 6 3 7 6 4 7 -7 84 31 96 48 4 6 8 7 8 3 0 -4 24 3 53 15 54 24 197 72 208
69 4 -1 22 3 40 8 19 6 66 13 104 16 39 3 71 7 73 8 4 5 205 -2 260 -9z"/>
</g>
</svg>
